<!DOCTYPE svg PUBLIC "-//W3C//DTD SVG 20010904//EN" "http://www.w3.org/TR/2001/REC-SVG-20010904/DTD/svg10.dtd">
<svg version="1.0" xmlns="http://www.w3.org/2000/svg" width="200px" height="200px" viewBox="0 0 2000 2000" preserveAspectRatio="xMidYMid meet">
<g id="layer101" fill="#894e00" stroke="none">
 <path d="M921 1863 c-17 -61 -13 -128 16 -236 56 -215 33 -314 -105 -459 -41 -43 -72 -81 -69 -84 9 -9 93 13 139 37 21 11 56 35 77 54 l38 34 44 -85 c70 -137 81 -130 40 27 -33 127 -31 135 32 160 18 7 33 13 35 14 1 1 -10 26 -25 56 -24 45 -29 68 -31 150 -4 112 11 183 62 294 l35 75 -139 0 -139 0 -10 -37z"/>
 <path d="M1166 1616 c-22 -15 -33 -76 -15 -76 36 1 133 61 118 74 -12 10 -90 12 -103 2z"/>
 <path d="M810 1611 c0 -6 10 -40 21 -75 20 -60 76 -136 101 -136 19 0 13 125 -7 157 -26 39 -115 81 -115 54z"/>
 <path d="M702 1488 c10 -76 29 -104 94 -140 69 -39 74 -37 74 25 0 68 -25 108 -92 146 -80 46 -86 44 -76 -31z"/>
 <path d="M1214 1521 c-30 -18 -74 -66 -74 -81 0 -12 59 -30 100 -30 37 0 142 46 147 66 5 14 -88 64 -118 64 -13 0 -38 -9 -55 -19z"/>
 <path d="M555 1426 c-16 -7 -39 -23 -50 -35 -23 -27 -13 -36 53 -46 37 -5 48 -3 66 14 12 12 27 21 34 21 25 0 20 20 -12 39 -39 24 -50 25 -91 7z"/>
 <path d="M1355 1426 c-16 -7 -38 -22 -48 -33 -22 -26 -9 -38 51 -48 37 -6 48 -3 84 21 l40 28 -28 23 c-33 26 -56 28 -99 9z"/>
 <path d="M593 1320 c-45 -30 -99 -151 -63 -141 91 26 236 82 252 99 l21 21 -39 17 c-63 27 -133 29 -171 4z"/>
 <path d="M1218 1333 c-32 -5 -35 -15 -11 -38 25 -26 59 -35 124 -35 63 0 70 7 40 34 -17 16 -105 48 -120 45 -3 -1 -18 -4 -33 -6z"/>
 <path d="M1471 1319 c-55 -11 -57 -13 -37 -43 23 -37 49 -47 150 -62 50 -7 101 -16 114 -20 15 -4 22 -2 22 8 0 20 -57 86 -88 102 -37 18 -108 25 -161 15z"/>
 <path d="M1130 1222 c0 -5 7 -29 15 -54 19 -56 57 -93 110 -107 41 -11 205 -15 205 -5 0 3 -19 27 -41 54 -45 53 -88 74 -174 85 -27 4 -62 13 -77 21 -31 16 -38 17 -38 6z"/>
 <path d="M695 1202 c-16 -11 -36 -27 -44 -36 -13 -15 -13 -19 0 -27 56 -36 185 30 133 68 -25 18 -54 16 -89 -5z"/>
 <path d="M1420 1190 c0 -5 17 -27 38 -50 36 -37 43 -40 93 -40 84 0 89 11 28 59 -46 37 -57 41 -105 41 -30 0 -54 -4 -54 -10z"/>
 <path d="M530 1153 c-31 -6 -48 -20 -71 -58 l-18 -29 6 37 c5 33 3 37 -16 37 -40 0 -90 -28 -111 -62 -11 -18 -20 -36 -20 -40 0 -15 95 -8 119 8 l23 17 -17 -27 -17 -26 59 0 c52 0 63 3 87 29 15 15 33 49 41 75 l14 46 -27 -1 c-15 -1 -38 -4 -52 -6z"/>
 <path d="M984 1142 c-26 -17 -57 -132 -36 -132 24 0 62 62 62 101 0 39 -5 45 -26 31z"/>
 <path d="M1660 1133 c1 -18 58 -89 80 -100 35 -18 110 -17 110 1 0 27 -46 81 -80 93 -39 13 -110 17 -110 6z"/>
 <path d="M1573 1050 c-28 -12 -29 -22 -2 -46 15 -13 36 -19 70 -19 63 0 76 13 49 48 -17 21 -30 27 -58 26 -20 0 -47 -4 -59 -9z"/>
 <path d="M1320 965 c0 -28 -4 -35 -19 -35 -11 0 -22 -8 -24 -17 -4 -17 -5 -17 -6 0 -1 12 -10 17 -33 17 -18 0 -38 -4 -45 -8 -6 -4 -12 -41 -14 -87 l-4 -80 33 -1 c25 -1 32 3 32 18 0 10 6 18 14 18 8 0 17 6 19 13 4 9 8 9 15 -2 7 -9 17 -11 33 -5 13 4 27 7 31 6 3 -1 12 5 18 13 11 13 14 13 25 -2 18 -25 45 -9 45 27 0 23 -4 30 -20 30 -11 0 -20 6 -20 14 0 21 17 28 24 10 3 -8 10 -12 16 -9 6 4 10 -6 10 -23 0 -33 22 -58 41 -46 9 5 10 -3 5 -34 -6 -39 4 -56 19 -32 3 5 12 7 20 3 9 -3 15 1 15 11 0 9 5 16 10 16 6 0 10 -11 10 -25 0 -14 5 -25 10 -25 6 0 10 9 10 21 0 22 22 49 39 49 6 0 11 19 12 43 1 43 3 42 14 -7 5 -23 10 -27 30 -24 13 3 26 1 28 -5 5 -16 62 7 66 28 4 24 51 75 51 56 0 -8 -10 -25 -21 -37 -31 -33 -19 -74 21 -74 25 0 30 4 30 25 0 25 -14 33 -25 15 -3 -5 -11 -10 -17 -10 -7 0 1 14 17 30 25 26 27 34 19 58 -7 19 -16 27 -34 27 -14 0 -31 4 -37 8 -23 15 -33 -3 -27 -44 4 -26 3 -39 -5 -39 -6 0 -11 17 -11 41 0 33 -3 40 -17 37 -10 -1 -24 1 -30 5 -7 5 -18 5 -25 1 -7 -4 -31 -7 -55 -5 l-43 3 0 -61 c0 -38 -4 -61 -11 -61 -8 0 -10 20 -7 59 l4 59 -30 5 c-17 2 -41 1 -54 -4 -15 -6 -31 -5 -44 2 -17 9 -24 8 -34 -5 -10 -15 -15 -15 -34 -4 -17 10 -20 20 -16 46 3 23 1 32 -10 32 -9 0 -14 -11 -14 -35z m372 -72 c6 -26 -2 -54 -13 -48 -12 8 -12 65 0 65 5 0 11 -8 13 -17z m-469 -5 c4 -10 8 -9 16 2 8 12 12 10 19 -10 11 -30 6 -47 -25 -77 -27 -28 -33 -29 -33 -2 0 11 5 17 10 14 6 -4 10 5 10 20 0 15 -4 24 -10 20 -6 -4 -10 5 -10 19 0 27 15 35 23 14z m97 -28 c0 -42 -14 -54 -25 -20 -7 23 2 60 16 60 5 0 9 -18 9 -40z m40 10 c0 -16 -4 -30 -10 -30 -5 0 -10 14 -10 30 0 17 5 30 10 30 6 0 10 -13 10 -30z m130 -6 c0 -13 -4 -24 -9 -24 -11 0 -22 40 -15 52 9 15 24 -2 24 -28z m128 -7 c2 -28 -1 -37 -12 -37 -12 0 -16 11 -16 41 0 52 24 48 28 -4z m99 -9 c-2 -13 -4 -5 -4 17 -1 22 1 32 4 23 2 -10 2 -28 0 -40z m-188 -10 c1 -10 -3 -18 -9 -18 -5 0 -10 17 -9 38 0 30 2 33 9 17 5 -11 9 -28 9 -37z"/>
 <path d="M320 931 c0 -4 -15 -7 -32 -7 -31 1 -33 -1 -36 -37 -2 -26 1 -39 12 -43 9 -3 16 -11 16 -17 0 -5 -9 -2 -20 8 -12 11 -20 31 -20 52 0 21 -6 36 -15 40 -20 7 -21 5 -30 -34 -5 -27 -4 -33 10 -33 12 0 16 6 12 20 -3 11 -1 18 4 14 13 -8 11 -102 -3 -106 -18 -6 1 -28 24 -28 15 0 19 5 15 19 -3 14 0 17 13 14 22 -6 30 6 40 65 8 41 9 37 6 -30 -2 -58 0 -78 10 -78 7 0 14 12 16 28 3 23 7 27 31 24 26 -3 27 -1 27 43 0 28 4 44 10 40 6 -3 10 -24 10 -47 0 -36 2 -39 16 -27 12 10 14 23 10 51 -4 25 -2 38 5 38 8 0 10 -24 7 -80 -4 -62 -2 -80 9 -80 10 0 13 21 14 83 1 63 3 75 9 53 5 -16 7 -33 4 -38 -10 -16 8 -48 27 -48 10 0 19 4 19 10 0 5 8 9 18 8 52 -4 61 2 71 45 l10 42 -3 -48 c-3 -40 -1 -48 13 -45 12 3 16 17 18 66 1 54 -1 62 -17 62 -10 0 -25 3 -34 6 -13 5 -16 -2 -16 -41 0 -31 -4 -44 -11 -39 -7 4 -8 20 -4 41 l6 34 -50 -4 c-28 -2 -51 -1 -51 2 0 4 -22 4 -50 3 -35 -3 -50 -8 -50 -18 0 -18 -16 -18 -23 0 -6 14 -47 29 -47 17z m40 -66 c0 -13 -4 -27 -10 -30 -6 -4 -10 8 -10 30 0 22 4 34 10 30 6 -3 10 -17 10 -30z m170 20 c0 -8 -4 -15 -10 -15 -5 0 -10 7 -10 15 0 8 5 15 10 15 6 0 10 -7 10 -15z m27 -42 c-3 -10 -5 -2 -5 17 0 19 2 27 5 18 2 -10 2 -26 0 -35z"/>
 <path d="M725 932 c-6 -4 -10 -46 -10 -95 0 -75 2 -87 17 -87 29 0 48 12 48 30 0 11 12 22 30 29 32 11 43 44 13 39 -15 -3 -18 4 -16 40 1 35 -1 42 -16 42 -16 0 -18 -6 -13 -46 5 -45 4 -46 -17 -32 -18 10 -21 19 -17 45 5 33 -3 47 -19 35z m32 -136 c-4 -9 -11 -16 -18 -16 -6 0 -8 7 -5 16 3 9 6 21 6 27 0 8 3 8 11 0 7 -7 9 -19 6 -27z"/>
 <path d="M894 913 c-17 -74 -24 -88 -19 -35 5 46 4 52 -13 52 -17 0 -19 -8 -18 -65 1 -64 1 -65 29 -65 24 0 27 3 27 35 0 19 5 35 10 35 6 0 10 -15 10 -34 0 -30 4 -35 31 -41 17 -4 35 -3 40 2 5 5 12 37 15 71 l7 62 -31 0 c-35 0 -46 -20 -38 -67 3 -15 -2 -4 -11 25 -18 58 -30 66 -39 25z m87 -36 c-13 -13 -26 -3 -16 12 3 6 11 8 17 5 6 -4 6 -10 -1 -17z"/>
 <path d="M1082 928 c-7 -7 -12 -34 -12 -60 0 -29 -4 -48 -11 -48 -8 0 -10 17 -6 55 4 42 2 55 -8 55 -17 0 -27 -43 -19 -86 4 -22 2 -34 -5 -34 -6 0 -11 -7 -11 -15 0 -8 5 -15 10 -15 6 0 10 -11 10 -25 0 -14 5 -25 10 -25 6 0 10 11 10 25 0 14 5 25 10 25 6 0 10 7 10 15 0 9 6 12 15 9 22 -9 45 14 45 43 0 22 -4 25 -25 21 -26 -5 -29 -1 -19 26 8 20 24 21 24 1 0 -20 16 -19 24 1 7 19 8 18 -20 32 -15 8 -24 8 -32 0z"/>
 <path d="M640 770 c0 -11 7 -20 15 -20 8 0 15 9 15 20 0 11 -7 20 -15 20 -8 0 -15 -9 -15 -20z"/>
 <path d="M847 776 c-6 -15 1 -26 15 -26 4 0 8 9 8 20 0 23 -15 27 -23 6z"/>
 <path d="M1620 770 c0 -13 5 -20 13 -17 6 2 12 10 12 17 0 7 -6 15 -12 18 -8 2 -13 -5 -13 -18z"/>
 <path d="M1678 750 c-20 -11 -39 -24 -43 -30 -8 -13 67 -50 101 -50 28 0 114 44 114 59 0 13 -70 41 -103 41 -18 -1 -49 -10 -69 -20z"/>
 <path d="M368 721 c-39 -25 -48 -36 -53 -68 -4 -21 -11 -51 -16 -67 -5 -16 -7 -31 -5 -34 13 -12 82 13 108 38 25 26 28 35 28 94 0 36 -4 66 -8 66 -4 0 -29 -13 -54 -29z"/>
 <path d="M1052 715 c-32 -27 -47 -65 -37 -96 10 -29 43 -23 81 15 26 26 34 42 34 70 0 31 -3 36 -24 36 -14 0 -38 -11 -54 -25z"/>
 <path d="M200 717 c-23 -11 -65 -76 -55 -85 2 -3 19 2 37 11 18 8 45 19 61 22 25 7 57 38 57 57 0 13 -73 9 -100 -5z"/>
 <path d="M597 701 c-22 -38 -21 -70 3 -156 11 -38 20 -85 20 -102 0 -44 14 -41 47 8 18 27 28 58 31 95 4 46 0 64 -27 119 -18 36 -38 65 -44 65 -7 0 -20 -13 -30 -29z"/>
 <path d="M457 713 c-4 -3 -7 -27 -7 -53 0 -36 5 -52 24 -69 22 -20 25 -21 40 -6 26 27 21 82 -11 110 -30 26 -36 29 -46 18z"/>
 <path d="M725 649 c1 -46 5 -55 38 -85 20 -19 41 -34 47 -34 13 0 13 96 -1 122 -8 15 -63 48 -82 48 -2 0 -3 -23 -2 -51z"/>
 <path d="M830 675 c0 -13 66 -123 89 -148 23 -25 26 -26 33 -10 12 32 8 98 -7 120 -18 26 -115 57 -115 38z"/>
 <path d="M1580 663 c0 -11 11 -42 25 -70 27 -53 58 -73 114 -73 48 0 51 11 18 68 -34 61 -55 77 -114 87 -38 6 -43 5 -43 -12z"/>
 <path d="M1467 633 c-36 -60 -47 -91 -47 -138 0 -88 18 -95 83 -31 58 56 67 95 38 160 -11 26 -27 46 -35 46 -9 0 -26 -17 -39 -37z"/>
 <path d="M1200 602 c0 -38 6 -55 31 -85 25 -31 93 -77 113 -77 2 0 7 12 10 28 9 38 -9 90 -41 126 -20 22 -16 20 12 -6 26 -25 50 -38 68 -38 37 0 35 24 -7 66 -28 28 -42 34 -76 34 -35 0 -41 -3 -36 -16 6 -15 4 -15 -18 0 -44 28 -56 21 -56 -32z"/>
 <path d="M1142 555 c-17 -38 -15 -90 6 -115 17 -21 19 -21 35 -6 27 28 31 63 12 107 -21 45 -37 49 -53 14z"/>
 <path d="M530 540 c-23 -23 -28 -90 -7 -90 19 0 46 32 48 56 6 57 -7 68 -41 34z"/>
 <path d="M734 509 c3 -17 6 -53 6 -80 0 -36 6 -55 24 -76 l24 -28 11 28 c25 64 5 153 -38 177 -30 16 -34 12 -27 -21z"/>
 <path d="M866 462 c-37 -54 -34 -93 10 -142 20 -22 40 -40 45 -40 5 0 9 21 9 46 0 56 -21 174 -30 174 -4 0 -19 -17 -34 -38z"/>
 <path d="M980 496 c0 -22 32 -76 55 -94 21 -17 41 -22 82 -22 l55 0 -33 41 c-17 22 -42 47 -55 56 -24 16 -104 30 -104 19z"/>
 <path d="M1215 440 c-11 -36 5 -78 49 -127 47 -51 62 -51 72 3 9 50 -12 91 -61 119 -51 30 -52 30 -60 5z"/>
 <path d="M966 378 c-3 -13 -6 -42 -6 -65 0 -35 6 -50 36 -83 20 -22 40 -40 44 -40 4 0 13 20 19 44 13 54 3 87 -42 134 -37 38 -43 39 -51 10z"/>
 <path d="M1100 321 c0 -46 22 -81 77 -123 26 -20 61 -50 77 -67 17 -17 34 -31 39 -31 5 0 8 26 5 59 -3 45 -11 68 -32 95 -34 45 -90 83 -134 92 -31 6 -32 5 -32 -25z"/>
 </g>
<g id="layer102" fill="#3a8717" stroke="none">
 <path d="M1166 1616 c-22 -15 -33 -76 -15 -76 36 1 133 61 118 74 -12 10 -90 12 -103 2z"/>
 <path d="M810 1611 c0 -6 10 -40 21 -75 20 -60 76 -136 101 -136 19 0 13 125 -7 157 -26 39 -115 81 -115 54z"/>
 <path d="M702 1488 c10 -76 29 -104 94 -140 69 -39 74 -37 74 25 0 68 -25 108 -92 146 -80 46 -86 44 -76 -31z"/>
 <path d="M1214 1521 c-30 -18 -74 -66 -74 -81 0 -12 59 -30 100 -30 37 0 142 46 147 66 5 14 -88 64 -118 64 -13 0 -38 -9 -55 -19z"/>
 <path d="M555 1426 c-16 -7 -39 -23 -50 -35 -23 -27 -13 -36 53 -46 37 -5 48 -3 66 14 12 12 27 21 34 21 25 0 20 20 -12 39 -39 24 -50 25 -91 7z"/>
 <path d="M1355 1426 c-16 -7 -38 -22 -48 -33 -22 -26 -9 -38 51 -48 37 -6 48 -3 84 21 l40 28 -28 23 c-33 26 -56 28 -99 9z"/>
 <path d="M593 1320 c-45 -30 -99 -151 -63 -141 91 26 236 82 252 99 l21 21 -39 17 c-63 27 -133 29 -171 4z"/>
 <path d="M1218 1333 c-32 -5 -35 -15 -11 -38 25 -26 59 -35 124 -35 63 0 70 7 40 34 -17 16 -105 48 -120 45 -3 -1 -18 -4 -33 -6z"/>
 <path d="M1471 1319 c-55 -11 -57 -13 -37 -43 23 -37 49 -47 150 -62 50 -7 101 -16 114 -20 15 -4 22 -2 22 8 0 20 -57 86 -88 102 -37 18 -108 25 -161 15z"/>
 <path d="M1130 1222 c0 -5 7 -29 15 -54 19 -56 57 -93 110 -107 41 -11 205 -15 205 -5 0 3 -19 27 -41 54 -45 53 -88 74 -174 85 -27 4 -62 13 -77 21 -31 16 -38 17 -38 6z"/>
 <path d="M695 1202 c-16 -11 -36 -27 -44 -36 -13 -15 -13 -19 0 -27 56 -36 185 30 133 68 -25 18 -54 16 -89 -5z"/>
 <path d="M1420 1190 c0 -5 17 -27 38 -50 36 -37 43 -40 93 -40 84 0 89 11 28 59 -46 37 -57 41 -105 41 -30 0 -54 -4 -54 -10z"/>
 <path d="M530 1153 c-31 -6 -48 -20 -71 -58 l-18 -29 6 37 c5 33 3 37 -16 37 -40 0 -90 -28 -111 -62 -11 -18 -20 -36 -20 -40 0 -15 95 -8 119 8 l23 17 -17 -27 -17 -26 59 0 c52 0 63 3 87 29 15 15 33 49 41 75 l14 46 -27 -1 c-15 -1 -38 -4 -52 -6z"/>
 <path d="M984 1142 c-26 -17 -57 -132 -36 -132 24 0 62 62 62 101 0 39 -5 45 -26 31z"/>
 <path d="M1660 1133 c1 -18 58 -89 80 -100 35 -18 110 -17 110 1 0 27 -46 81 -80 93 -39 13 -110 17 -110 6z"/>
 <path d="M1573 1050 c-28 -12 -29 -22 -2 -46 15 -13 36 -19 70 -19 63 0 76 13 49 48 -17 21 -30 27 -58 26 -20 0 -47 -4 -59 -9z"/>
 <path d="M1678 750 c-20 -11 -39 -24 -43 -30 -8 -13 67 -50 101 -50 28 0 114 44 114 59 0 13 -70 41 -103 41 -18 -1 -49 -10 -69 -20z"/>
 <path d="M368 721 c-39 -25 -48 -36 -53 -68 -4 -21 -11 -51 -16 -67 -5 -16 -7 -31 -5 -34 13 -12 82 13 108 38 25 26 28 35 28 94 0 36 -4 66 -8 66 -4 0 -29 -13 -54 -29z"/>
 <path d="M1052 715 c-32 -27 -47 -65 -37 -96 10 -29 43 -23 81 15 26 26 34 42 34 70 0 31 -3 36 -24 36 -14 0 -38 -11 -54 -25z"/>
 <path d="M200 717 c-23 -11 -65 -76 -55 -85 2 -3 19 2 37 11 18 8 45 19 61 22 25 7 57 38 57 57 0 13 -73 9 -100 -5z"/>
 <path d="M597 701 c-22 -38 -21 -70 3 -156 11 -38 20 -85 20 -102 0 -44 14 -41 47 8 18 27 28 58 31 95 4 46 0 64 -27 119 -18 36 -38 65 -44 65 -7 0 -20 -13 -30 -29z"/>
 <path d="M457 713 c-4 -3 -7 -27 -7 -53 0 -36 5 -52 24 -69 22 -20 25 -21 40 -6 26 27 21 82 -11 110 -30 26 -36 29 -46 18z"/>
 <path d="M725 649 c1 -46 5 -55 38 -85 20 -19 41 -34 47 -34 13 0 13 96 -1 122 -8 15 -63 48 -82 48 -2 0 -3 -23 -2 -51z"/>
 <path d="M830 675 c0 -13 66 -123 89 -148 23 -25 26 -26 33 -10 12 32 8 98 -7 120 -18 26 -115 57 -115 38z"/>
 <path d="M1580 663 c0 -11 11 -42 25 -70 27 -53 58 -73 114 -73 48 0 51 11 18 68 -34 61 -55 77 -114 87 -38 6 -43 5 -43 -12z"/>
 <path d="M1467 633 c-36 -60 -47 -91 -47 -138 0 -88 18 -95 83 -31 58 56 67 95 38 160 -11 26 -27 46 -35 46 -9 0 -26 -17 -39 -37z"/>
 <path d="M1200 602 c0 -38 6 -55 31 -85 25 -31 93 -77 113 -77 2 0 7 12 10 28 9 38 -9 90 -41 126 -20 22 -16 20 12 -6 26 -25 50 -38 68 -38 37 0 35 24 -7 66 -28 28 -42 34 -76 34 -35 0 -41 -3 -36 -16 6 -15 4 -15 -18 0 -44 28 -56 21 -56 -32z"/>
 <path d="M1142 555 c-17 -38 -15 -90 6 -115 17 -21 19 -21 35 -6 27 28 31 63 12 107 -21 45 -37 49 -53 14z"/>
 <path d="M530 540 c-23 -23 -28 -90 -7 -90 19 0 46 32 48 56 6 57 -7 68 -41 34z"/>
 <path d="M734 509 c3 -17 6 -53 6 -80 0 -36 6 -55 24 -76 l24 -28 11 28 c25 64 5 153 -38 177 -30 16 -34 12 -27 -21z"/>
 <path d="M866 462 c-37 -54 -34 -93 10 -142 20 -22 40 -40 45 -40 5 0 9 21 9 46 0 56 -21 174 -30 174 -4 0 -19 -17 -34 -38z"/>
 <path d="M980 496 c0 -22 32 -76 55 -94 21 -17 41 -22 82 -22 l55 0 -33 41 c-17 22 -42 47 -55 56 -24 16 -104 30 -104 19z"/>
 <path d="M1215 440 c-11 -36 5 -78 49 -127 47 -51 62 -51 72 3 9 50 -12 91 -61 119 -51 30 -52 30 -60 5z"/>
 <path d="M966 378 c-3 -13 -6 -42 -6 -65 0 -35 6 -50 36 -83 20 -22 40 -40 44 -40 4 0 13 20 19 44 13 54 3 87 -42 134 -37 38 -43 39 -51 10z"/>
 <path d="M1100 321 c0 -46 22 -81 77 -123 26 -20 61 -50 77 -67 17 -17 34 -31 39 -31 5 0 8 26 5 59 -3 45 -11 68 -32 95 -34 45 -90 83 -134 92 -31 6 -32 5 -32 -25z"/>
 </g>
<g id="layer103" fill="#55b329" stroke="none">
 <path d="M702 1488 c10 -76 29 -104 94 -140 69 -39 74 -37 74 25 0 68 -25 108 -92 146 -80 46 -86 44 -76 -31z"/>
 <path d="M1214 1521 c-30 -18 -74 -66 -74 -81 0 -12 59 -30 100 -30 37 0 142 46 147 66 5 14 -88 64 -118 64 -13 0 -38 -9 -55 -19z"/>
 <path d="M1130 1222 c0 -5 7 -29 15 -54 19 -56 57 -93 110 -107 41 -11 205 -15 205 -5 0 3 -19 27 -41 54 -45 53 -88 74 -174 85 -27 4 -62 13 -77 21 -31 16 -38 17 -38 6z"/>
 <path d="M529 1153 c-31 -5 -55 -30 -93 -95 l-27 -48 59 0 c51 0 62 4 86 29 15 15 33 49 41 75 l14 46 -27 -1 c-15 -1 -39 -4 -53 -6z"/>
 <path d="M1660 1133 c1 -18 58 -89 80 -100 35 -18 110 -17 110 1 0 27 -46 81 -80 93 -39 13 -110 17 -110 6z"/>
 <path d="M1678 750 c-20 -11 -39 -24 -43 -30 -8 -13 67 -50 101 -50 28 0 114 44 114 59 0 13 -70 41 -103 41 -18 -1 -49 -10 -69 -20z"/>
 <path d="M200 717 c-28 -14 -66 -80 -50 -85 6 -2 16 0 23 6 7 5 29 15 50 22 36 11 61 44 50 63 -7 11 -45 8 -73 -6z"/>
 <path d="M627 680 c-44 -35 -49 -59 -26 -137 10 -37 19 -83 19 -100 0 -44 14 -41 47 8 38 57 42 137 11 202 l-23 49 -28 -22z"/>
 <path d="M1467 633 c-36 -60 -47 -91 -47 -138 0 -88 18 -95 83 -31 58 56 67 95 38 160 -11 26 -27 46 -35 46 -9 0 -26 -17 -39 -37z"/>
 <path d="M1200 602 c0 -38 6 -55 31 -85 32 -38 106 -84 117 -72 15 15 5 97 -15 123 -25 34 -92 81 -115 82 -15 0 -18 -9 -18 -48z"/>
 <path d="M734 509 c3 -17 6 -53 6 -80 0 -36 6 -55 24 -76 l24 -28 11 28 c25 64 5 153 -38 177 -30 16 -34 12 -27 -21z"/>
 <path d="M1100 321 c0 -46 22 -81 77 -123 26 -20 61 -50 77 -67 17 -17 34 -31 39 -31 5 0 8 26 5 59 -3 45 -11 68 -32 95 -34 45 -90 83 -134 92 -31 6 -32 5 -32 -25z"/>
 </g>

</svg>